<svg width="124" height="84" viewBox="0 0 124 84" fill="none" xmlns="http://www.w3.org/2000/svg">
<g clip-path="url(#clip0_1_504)">
<path d="M4.75344 83.6156C3.74043 83.6156 2.75797 83.4813 1.806 83.2132C0.866221 82.9326 0.109553 82.5731 -0.464081 82.1341L0.542809 79.9029C1.09202 80.3052 1.74496 80.6282 2.50167 80.8722C3.25837 81.1162 4.01504 81.238 4.77174 81.238C5.61387 81.238 6.23631 81.1162 6.63907 80.8722C7.04182 80.6162 7.2432 80.2807 7.2432 79.8663C7.2432 79.5616 7.12128 79.3114 6.87706 79.1164C6.64529 78.909 6.33993 78.7444 5.9617 78.6226C5.59556 78.5008 5.09516 78.3666 4.46052 78.2203C3.48413 77.9887 2.68474 77.7568 2.0623 77.5253C1.43986 77.2938 0.902836 76.9218 0.451273 76.4097C0.0119034 75.8976 -0.207783 75.2147 -0.207783 74.3613C-0.207783 73.6177 -0.00640425 72.9468 0.396352 72.3495C0.799108 71.7397 1.40324 71.2584 2.20875 70.9047C3.02646 70.5509 4.02115 70.3743 5.19281 70.3743C6.0104 70.3743 6.81006 70.4719 7.59104 70.6669C8.37202 70.8619 9.0556 71.1424 9.64143 71.5082L8.72608 73.7577C7.54234 73.0873 6.35824 72.7518 5.1745 72.7518C4.34457 72.7518 3.72824 72.8861 3.32549 73.1542C2.93492 73.4223 2.73966 73.776 2.73966 74.215C2.73966 74.6539 2.96546 74.9831 3.41702 75.2026C3.88081 75.41 4.58256 75.617 5.52234 75.8244C6.49884 76.056 7.29812 76.2879 7.92056 76.5194C8.54301 76.7509 9.07391 77.1167 9.51328 77.6167C9.96473 78.1168 10.1906 78.7935 10.1906 79.6468C10.1906 80.3784 9.98304 81.0489 9.5682 81.6586C9.16545 82.2559 8.55509 82.7315 7.73749 83.0852C6.9199 83.4389 5.92509 83.6156 4.75344 83.6156ZM21.5722 80.6527H15.6224L14.4873 83.3961H11.4483L17.1602 70.5937H20.0893L25.8194 83.3961H22.7072L21.5722 80.6527ZM20.6385 78.4032L18.6064 73.5017L16.5743 78.4032H20.6385ZM31.03 72.9713V76.3548H36.9615V78.7324H31.03V83.3961H28.0642V70.5937H37.7487V72.9713H31.03ZM50.5944 81.0185V83.3961H40.6719V70.5937H50.3564V72.9713H43.6194V75.7513H49.5692V78.0557H43.6194V81.0185H50.5944ZM65.6227 70.5937V83.3961H62.6569V78.1471H56.8353V83.3961H53.8695V70.5937H56.8353V75.6415H62.6569V70.5937H65.6227ZM75.7758 83.6156C74.4456 83.6156 73.2435 83.3292 72.1693 82.756C71.1075 82.1828 70.2716 81.3964 69.6612 80.3967C69.0633 79.3846 68.7642 78.2506 68.7642 76.9949C68.7642 75.7392 69.0633 74.6111 69.6612 73.6114C70.2716 72.5993 71.1075 71.807 72.1693 71.2339C73.2435 70.6607 74.4456 70.3743 75.7758 70.3743C77.1063 70.3743 78.3021 70.6607 79.364 71.2339C80.4258 71.807 81.262 72.5993 81.872 73.6114C82.4824 74.6111 82.7874 75.7392 82.7874 76.9949C82.7874 78.2506 82.4824 79.3846 81.872 80.3967C81.262 81.3964 80.4258 82.1828 79.364 82.756C78.3021 83.3292 77.1063 83.6156 75.7758 83.6156ZM75.7758 81.0917C76.5326 81.0917 77.2162 80.9208 77.8262 80.5796C78.4365 80.2259 78.9125 79.7383 79.2541 79.1164C79.6082 78.4946 79.785 77.7876 79.785 76.9949C79.785 76.2023 79.6082 75.4952 79.2541 74.8734C78.9125 74.2516 78.4365 73.7698 77.8262 73.4285C77.2162 73.0748 76.5326 72.8982 75.7758 72.8982C75.0193 72.8982 74.3357 73.0748 73.7254 73.4285C73.1154 73.7698 72.6332 74.2516 72.2791 74.8734C71.9375 75.4952 71.7665 76.2023 71.7665 76.9949C71.7665 77.7876 71.9375 78.4946 72.2791 79.1164C72.6332 79.7383 73.1154 80.2259 73.7254 80.5796C74.3357 80.9208 75.0193 81.0917 75.7758 81.0917ZM91.6253 83.6156C89.7946 83.6156 88.3667 83.1097 87.3415 82.0976C86.3284 81.0855 85.822 79.6406 85.822 77.7631V70.5937H88.7877V77.6533C88.7877 79.9457 89.7397 81.0917 91.6436 81.0917C92.5711 81.0917 93.2792 80.8173 93.7673 80.2687C94.2553 79.7079 94.4995 78.8359 94.4995 77.6533V70.5937H97.4287V77.7631C97.4287 79.6406 96.9161 81.0855 95.8909 82.0976C94.8778 83.1097 93.456 83.6156 91.6253 83.6156ZM105.485 83.6156C104.472 83.6156 103.49 83.4813 102.538 83.2132C101.598 82.9326 100.841 82.5731 100.268 82.1341L101.275 79.9029C101.824 80.3052 102.477 80.6282 103.233 80.8722C103.99 81.1162 104.747 81.238 105.504 81.238C106.346 81.238 106.968 81.1162 107.371 80.8722C107.774 80.6162 107.975 80.2807 107.975 79.8663C107.975 79.5616 107.853 79.3114 107.609 79.1164C107.377 78.909 107.072 78.7444 106.694 78.6226C106.327 78.5008 105.827 78.3666 105.192 78.2203C104.216 77.9887 103.417 77.7568 102.794 77.5253C102.172 77.2938 101.635 76.9218 101.183 76.4097C100.744 75.8976 100.524 75.2147 100.524 74.3613C100.524 73.6177 100.725 72.9468 101.128 72.3495C101.531 71.7397 102.135 71.2584 102.941 70.9047C103.759 70.5509 104.753 70.3743 105.925 70.3743C106.743 70.3743 107.542 70.4719 108.323 70.6669C109.104 70.8619 109.787 71.1424 110.373 71.5082L109.458 73.7577C108.274 73.0873 107.09 72.7518 105.906 72.7518C105.077 72.7518 104.46 72.8861 104.057 73.1542C103.667 73.4223 103.471 73.776 103.471 74.215C103.471 74.6539 103.697 74.9831 104.149 75.2026C104.613 75.41 105.315 75.617 106.254 75.8244C107.231 76.056 108.03 76.2879 108.652 76.5194C109.275 76.7509 109.806 77.1167 110.245 77.6167C110.697 78.1168 110.922 78.7935 110.922 79.6468C110.922 80.3784 110.715 81.0489 110.3 81.6586C109.897 82.2559 109.287 82.7315 108.469 83.0852C107.652 83.4389 106.657 83.6156 105.485 83.6156ZM123.787 81.0185V83.3961H113.864V70.5937H123.549V72.9713H116.812V75.7513H122.762V78.0557H116.812V81.0185H123.787Z" fill="white"/>
<path fill-rule="evenodd" clip-rule="evenodd" d="M18.0625 43.5976L62.0757 -0.372314L62.0804 -0.367612L62.0807 -0.367932L81 18.4798V6.99997H88V25.4533L106.218 43.6021L100.522 49.2923L62.084 10.9998L23.7583 49.2879L18.0625 43.5976ZM55.4102 35.1133H68.9574V58.5233H55.4102V35.1133Z" fill="white"/>
</g>
<defs>
<clipPath id="clip0_1_504">
<rect width="124" height="84" fill="white"/>
</clipPath>
</defs>
</svg>
